<svg width="150" height="48" viewBox="0 0 150 48" fill="none" xmlns="http://www.w3.org/2000/svg">
<rect width="35.8575" height="47.8101" fill="#FBB731"/>
<path fill-rule="evenodd" clip-rule="evenodd" d="M34.5769 5.97632H37.1381C46.3282 5.9869 53.7757 13.4343 53.7863 22.6244C53.7863 23.3317 53.2129 23.9051 52.5056 23.9051H19.2094C18.5021 23.9051 17.9287 23.3317 17.9287 22.6244C17.9393 13.4343 25.3868 5.9869 34.5769 5.97632ZM34.5769 8.53751C27.2964 8.54621 21.2186 14.0943 20.5477 21.3438H51.1674C50.4966 14.0942 44.4187 8.54621 37.1382 8.53751H34.5769Z" fill="#443737"/>
<path fill-rule="evenodd" clip-rule="evenodd" d="M47.3831 31.6814H52.5057C53.213 31.6814 53.7863 32.2496 53.7863 32.9505V35.4886C53.7821 38.9912 50.9177 41.8297 47.3831 41.8338H24.3318C20.7972 41.8297 17.9329 38.9912 17.9287 35.4886V32.9505C17.9287 32.2496 18.5021 31.6814 19.2094 31.6814H37.1381C37.4152 31.6814 37.6848 31.7704 37.9064 31.9352L42.2606 35.1713L46.6148 31.9352C46.8364 31.7705 47.106 31.6814 47.3831 31.6814ZM47.3832 39.2957C49.505 39.2957 51.2251 37.5912 51.2251 35.4885V34.2194H47.8097L43.0291 37.7728C42.5737 38.1112 41.9476 38.1112 41.4923 37.7728L36.7117 34.2194H20.49V35.4885C20.49 37.5912 22.2101 39.2957 24.3319 39.2957H47.3832Z" fill="#443737"/>
<path d="M52.5056 26.4971H19.2094C18.5021 26.4971 17.9287 27.0773 17.9287 27.7931C17.9287 28.5088 18.5021 29.0892 19.2094 29.0892H52.5056C53.2129 29.0892 53.7863 28.5089 53.7863 27.7931C53.7863 27.0773 53.2129 26.4971 52.5056 26.4971Z" fill="#443737"/>
<path d="M29.3774 13.5366C28.6616 13.5366 28.0813 14.1169 28.0813 14.8327V16.1287C28.0813 16.8445 28.6616 17.4248 29.3774 17.4248C30.0932 17.4248 30.6734 16.8445 30.6734 16.1287V14.8327C30.6734 14.1169 30.0932 13.5366 29.3774 13.5366Z" fill="#443737"/>
<path d="M35.8576 13.5366C35.1418 13.5366 34.5615 14.1169 34.5615 14.8327V16.1287C34.5615 16.8445 35.1418 17.4248 35.8576 17.4248C36.5734 17.4248 37.1536 16.8445 37.1536 16.1287V14.8326C37.1536 14.1169 36.5734 13.5366 35.8576 13.5366Z" fill="#443737"/>
<path d="M42.3378 13.5366C41.622 13.5366 41.0417 14.1169 41.0417 14.8327V16.1287C41.0417 16.8445 41.622 17.4248 42.3378 17.4248C43.0536 17.4248 43.6339 16.8445 43.6339 16.1287V14.8327C43.6338 14.1169 43.0535 13.5366 42.3378 13.5366Z" fill="#443737"/>
<path d="M63.7786 30.7351V16.2896H70.3968C71.9404 16.2896 73.1288 16.6243 73.9621 17.2936C74.809 17.963 75.2325 18.8782 75.2325 20.0393C75.2325 20.8042 75.0412 21.4667 74.6588 22.0268C74.2763 22.5732 73.7435 22.983 73.0605 23.2562C73.8801 23.4884 74.5085 23.8982 74.9456 24.4856C75.3964 25.073 75.6218 25.797 75.6218 26.6576C75.6218 27.9416 75.171 28.9456 74.2695 29.6696C73.3816 30.3799 72.1658 30.7351 70.6222 30.7351H63.7786ZM66.8111 22.2317H69.8436C71.4009 22.2317 72.1795 21.6307 72.1795 20.4286C72.1795 19.2402 71.4009 18.646 69.8436 18.646H66.8111V22.2317ZM66.8111 28.3787H70.1919C71.0115 28.3787 71.6126 28.2216 71.9951 27.9074C72.3775 27.5933 72.5688 27.1152 72.5688 26.4731C72.5688 25.8448 72.3775 25.3735 71.9951 25.0593C71.6126 24.7451 71.0115 24.5881 70.1919 24.5881H66.8111V28.3787Z" fill="#443737"/>
<path d="M84.2135 30.9605C82.1645 30.9605 80.6004 30.4345 79.5213 29.3827C78.4558 28.3309 77.9231 26.7668 77.9231 24.6905V16.2896H81.099V24.711C81.099 25.8858 81.3654 26.7737 81.8981 27.3747C82.4309 27.9621 83.2027 28.2558 84.2135 28.2558C86.2762 28.2558 87.3075 27.0742 87.3075 24.711V16.2896H90.4425V24.6905C90.4425 26.7668 89.9166 28.3309 88.8648 29.3827C87.8129 30.4345 86.2625 30.9605 84.2135 30.9605Z" fill="#443737"/>
<path d="M93.253 30.7351V16.2896H99.8508C101.463 16.2896 102.706 16.6789 103.58 17.4575C104.454 18.2362 104.891 19.3221 104.891 20.7154C104.891 21.7946 104.611 22.6961 104.051 23.4201C103.505 24.1304 102.719 24.6154 101.695 24.8749C102.419 25.0935 103.013 25.6194 103.478 26.4527L105.813 30.7351H102.31L99.8098 26.1248C99.6049 25.756 99.3522 25.5033 99.0517 25.3667C98.7511 25.2164 98.396 25.1413 97.9862 25.1413H96.4289V30.7351H93.253ZM96.4289 22.8464H99.2771C100.985 22.8464 101.838 22.1634 101.838 20.7974C101.838 19.4451 100.985 18.7689 99.2771 18.7689H96.4289V22.8464Z" fill="#443737"/>
<path d="M114.571 30.9605C112.945 30.9605 111.566 30.6531 110.432 30.0384C109.312 29.4237 108.458 28.5631 107.871 27.4567C107.283 26.3502 106.99 25.0525 106.99 23.5636C106.99 22.0336 107.29 20.7086 107.891 19.5885C108.506 18.4684 109.387 17.601 110.534 16.9863C111.682 16.3716 113.062 16.0642 114.673 16.0642C115.684 16.0642 116.64 16.2076 117.542 16.4945C118.457 16.7814 119.202 17.1638 119.775 17.6419L118.751 20.1212C118.123 19.6568 117.481 19.329 116.825 19.1377C116.169 18.9328 115.459 18.8304 114.694 18.8304C113.232 18.8304 112.133 19.2402 111.395 20.0598C110.671 20.8657 110.309 22.0336 110.309 23.5636C110.309 25.1071 110.678 26.2751 111.415 27.0674C112.167 27.8596 113.273 28.2558 114.735 28.2558C115.513 28.2558 116.333 28.1328 117.194 27.887V25.0593H114.079V22.7644H119.816V29.854C119.106 30.2092 118.286 30.4824 117.358 30.6736C116.429 30.8648 115.5 30.9605 114.571 30.9605Z" fill="#443737"/>
<path d="M129.328 30.9605C127.907 30.9605 126.657 30.6531 125.578 30.0384C124.512 29.41 123.679 28.5426 123.078 27.4362C122.491 26.3161 122.197 25.0047 122.197 23.5021C122.197 21.9995 122.491 20.695 123.078 19.5885C123.679 18.4684 124.512 17.601 125.578 16.9863C126.643 16.3716 127.893 16.0642 129.328 16.0642C130.762 16.0642 132.012 16.3716 133.077 16.9863C134.156 17.601 134.99 18.4684 135.577 19.5885C136.178 20.695 136.479 21.9927 136.479 23.4816C136.479 24.9842 136.178 26.2956 135.577 27.4157C134.99 28.5358 134.156 29.41 133.077 30.0384C132.012 30.6531 130.762 30.9605 129.328 30.9605ZM129.328 28.2558C130.53 28.2558 131.465 27.8391 132.135 27.0059C132.818 26.159 133.159 24.991 133.159 23.5021C133.159 21.9995 132.825 20.8384 132.155 20.0188C131.486 19.1855 130.543 18.7689 129.328 18.7689C128.139 18.7689 127.203 19.1855 126.52 20.0188C125.851 20.8384 125.516 21.9995 125.516 23.5021C125.516 24.991 125.851 26.159 126.52 27.0059C127.203 27.8391 128.139 28.2558 129.328 28.2558Z" fill="#443737"/>
<path d="M144.099 30.9605C142.965 30.9605 141.893 30.817 140.882 30.5302C139.885 30.2433 139.051 29.854 138.382 29.3622L139.304 26.8625C139.946 27.3132 140.677 27.6684 141.497 27.9279C142.33 28.1875 143.197 28.3172 144.099 28.3172C145.082 28.3172 145.786 28.167 146.209 27.8665C146.646 27.5523 146.865 27.163 146.865 26.6985C146.865 26.3024 146.715 25.9882 146.414 25.756C146.114 25.5238 145.588 25.3257 144.836 25.1618L142.521 24.67C139.939 24.1236 138.648 22.7849 138.648 20.654C138.648 19.7388 138.894 18.9396 139.386 18.2566C139.878 17.56 140.561 17.0204 141.435 16.6379C142.323 16.2554 143.348 16.0642 144.509 16.0642C145.506 16.0642 146.442 16.2076 147.316 16.4945C148.19 16.7814 148.914 17.1843 149.488 17.7034L148.566 20.0393C147.446 19.1514 146.086 18.7074 144.488 18.7074C143.628 18.7074 142.958 18.8782 142.48 19.2197C142.016 19.5475 141.783 19.9778 141.783 20.5105C141.783 20.9067 141.927 21.2277 142.214 21.4736C142.501 21.7195 142.999 21.9175 143.71 22.0678L146.025 22.5595C148.675 23.1333 150 24.431 150 26.4527C150 27.3542 149.754 28.1465 149.262 28.8295C148.784 29.4988 148.101 30.0247 147.213 30.4072C146.339 30.776 145.301 30.9605 144.099 30.9605Z" fill="#443737"/>
</svg>
